<svg width="33" height="33" viewBox="0 0 33 33" fill="#fff" xmlns="http://www.w3.org/2000/svg">
<circle opacity="1" cx="16.5" cy="16.5" r="16" stroke="#f3fb23"/>
<path d="M15.368 20.04C15.024 20.368 14.564 20.624 13.988 20.808C13.42 20.984 12.788 21.072 12.092 21.072C11.356 21.072 10.728 20.972 10.208 20.772C9.696 20.572 9.308 20.296 9.044 19.944C8.788 19.592 8.66 19.188 8.66 18.732C8.66 18.228 8.808 17.8 9.104 17.448C9.408 17.096 9.804 16.852 10.292 16.716C9.892 16.564 9.58 16.324 9.356 15.996C9.132 15.66 9.02 15.268 9.02 14.82C9.02 14.396 9.14 14.012 9.38 13.668C9.628 13.316 9.996 13.04 10.484 12.84C10.98 12.632 11.576 12.528 12.272 12.528C12.784 12.528 13.28 12.588 13.76 12.708C14.248 12.82 14.664 12.984 15.008 13.2L14.732 13.908C13.996 13.492 13.188 13.284 12.308 13.284C11.532 13.284 10.936 13.432 10.52 13.728C10.112 14.024 9.908 14.408 9.908 14.88C9.908 15.352 10.072 15.716 10.4 15.972C10.736 16.228 11.208 16.356 11.816 16.356H13.904V17.124H11.78C11.092 17.124 10.548 17.256 10.148 17.52C9.748 17.776 9.548 18.16 9.548 18.672C9.548 19.176 9.764 19.576 10.196 19.872C10.636 20.168 11.28 20.316 12.128 20.316C12.72 20.316 13.272 20.232 13.784 20.064C14.296 19.896 14.712 19.664 15.032 19.368L15.368 20.04ZM20.0095 14.64C20.8015 14.64 21.4295 14.872 21.8935 15.336C22.3655 15.792 22.6015 16.46 22.6015 17.34V21H21.7495V17.424C21.7495 16.768 21.5855 16.268 21.2575 15.924C20.9295 15.58 20.4615 15.408 19.8535 15.408C19.1735 15.408 18.6335 15.612 18.2335 16.02C17.8415 16.42 17.6455 16.976 17.6455 17.688V21H16.7935V14.688H17.6095V15.852C17.8415 15.468 18.1615 15.172 18.5695 14.964C18.9855 14.748 19.4655 14.64 20.0095 14.64Z" fill="#fcdd3e"/>
</svg>
