<?xml version="1.0" encoding="utf-8"?>
<!-- Generator: Adobe Illustrator 22.1.0, SVG Export Plug-In . SVG Version: 6.00 Build 0)  -->
<svg version="1.1" id="Слой_1" xmlns="http://www.w3.org/2000/svg" xmlns:xlink="http://www.w3.org/1999/xlink" x="0px" y="0px"
	 viewBox="0 0 114.524 68.626" style="enable-background:new 0 0 114.524 68.626;" xml:space="preserve">
<style type="text/css">
	.st0{fill:url(#SVGID_1_);}
	.st1{fill:#FFFFFF;}
</style>
<g>
	<linearGradient id="SVGID_1_" gradientUnits="userSpaceOnUse" x1="14.5714" y1="10.4792" x2="217.2381" y2="135.1459">
		<stop  offset="0.0033" style="stop-color:#82589B"/>
		<stop  offset="0.009" style="stop-color:#83589A"/>
		<stop  offset="0.1252" style="stop-color:#935985"/>
		<stop  offset="0.2449" style="stop-color:#A45972"/>
		<stop  offset="0.3655" style="stop-color:#B15763"/>
		<stop  offset="0.4871" style="stop-color:#BC5656"/>
		<stop  offset="0.6102" style="stop-color:#C5544D"/>
		<stop  offset="0.7352" style="stop-color:#CC5347"/>
		<stop  offset="0.8634" style="stop-color:#D15244"/>
		<stop  offset="1" style="stop-color:#D35243"/>
	</linearGradient>
	<path class="st0" d="M62.383,12.622V0L0,9.347v59.279l52.141-7.607v7.319l62.383-9.071V4.853L62.383,12.622z M105.524,56.356
		l-45.003,6.556v-1.948l45.003-6.562V56.356z"/>
</g>
<g>
	<path class="st1" d="M14.204,38.408l3.453-0.485v3.564l-3.453,0.485V38.408z M14.287,45.04l3.287-0.462v13.438l-3.287,0.462V45.04z
		"/>
	<path class="st1" d="M24.287,45.506l0.056-0.007c0.194-0.305,0.438-0.612,0.734-0.922s0.634-0.593,1.013-0.85
		s0.798-0.479,1.256-0.669c0.457-0.188,0.944-0.32,1.463-0.393c0.489-0.068,0.964-0.08,1.421-0.033
		c0.458,0.047,0.876,0.162,1.256,0.344c0.379,0.182,0.714,0.44,1.005,0.773c0.291,0.334,0.521,0.748,0.687,1.242
		c0.093,0.273,0.154,0.577,0.188,0.91c0.032,0.333,0.048,0.721,0.048,1.164v8.725l-3.286,0.461v-8.209
		c0-0.361-0.014-0.67-0.042-0.924c-0.028-0.256-0.078-0.475-0.153-0.658c-0.166-0.402-0.417-0.672-0.755-0.81
		c-0.338-0.137-0.746-0.173-1.228-0.104c-0.638,0.09-1.25,0.326-1.838,0.709c-0.587,0.383-1.107,0.893-1.56,1.53v9.25l-3.287,0.462
		V44.06l2.718-0.382L24.287,45.506z"/>
	<path class="st1" d="M40.831,54.748l-3.397,0.477V36.67l11.815-1.661v2.843l-8.418,1.184v4.799l7.197-1.012v2.843l-7.197,1.012
		V54.748z"/>
	<path class="st1" d="M64.629,44.691c0,1.054-0.156,2.037-0.471,2.949c-0.314,0.914-0.765,1.723-1.352,2.424
		c-0.588,0.702-1.297,1.28-2.13,1.734c-0.832,0.455-1.761,0.754-2.787,0.898c-1.054,0.148-2,0.111-2.836-0.107
		c-0.837-0.221-1.547-0.6-2.129-1.137c-0.583-0.537-1.029-1.219-1.338-2.045c-0.311-0.824-0.466-1.765-0.466-2.818
		c0-1.055,0.158-2.038,0.473-2.951c0.313-0.914,0.765-1.721,1.352-2.424c0.587-0.701,1.297-1.279,2.129-1.734
		c0.832-0.454,1.762-0.754,2.787-0.897c1.055-0.148,1.999-0.112,2.837,0.106c0.836,0.221,1.546,0.6,2.128,1.137
		c0.583,0.539,1.029,1.22,1.339,2.045C64.475,42.697,64.629,43.637,64.629,44.691z M61.233,45.169c0-0.712-0.084-1.329-0.25-1.853
		c-0.166-0.521-0.397-0.946-0.693-1.275c-0.296-0.327-0.651-0.555-1.068-0.682c-0.416-0.126-0.868-0.155-1.359-0.086
		c-0.48,0.067-0.927,0.223-1.338,0.465c-0.411,0.244-0.765,0.57-1.061,0.981s-0.527,0.902-0.693,1.471
		c-0.167,0.569-0.25,1.21-0.25,1.922s0.083,1.328,0.25,1.851c0.166,0.522,0.399,0.945,0.7,1.268c0.3,0.323,0.656,0.551,1.067,0.682
		c0.412,0.132,0.862,0.163,1.353,0.095c0.489-0.069,0.938-0.227,1.346-0.474c0.406-0.246,0.758-0.573,1.054-0.98
		c0.296-0.406,0.527-0.895,0.693-1.463C61.149,46.521,61.233,45.881,61.233,45.169z"/>
	<path class="st1" d="M77.223,49.342c-0.416,0.234-0.925,0.457-1.525,0.665c-0.602,0.21-1.235,0.361-1.9,0.454
		c-0.971,0.137-1.877,0.125-2.719-0.033c-0.841-0.159-1.576-0.477-2.204-0.952c-0.629-0.476-1.124-1.12-1.483-1.935
		c-0.361-0.814-0.542-1.799-0.542-2.953c0-1.295,0.208-2.434,0.625-3.418c0.416-0.981,0.954-1.81,1.614-2.479
		c0.662-0.671,1.405-1.201,2.233-1.59s1.644-0.641,2.447-0.753c0.602-0.085,1.18-0.112,1.734-0.085
		c0.555,0.028,1.059,0.103,1.512,0.226v2.676c-0.407-0.118-0.839-0.199-1.297-0.241c-0.458-0.041-0.95-0.025-1.477,0.048
		c-0.527,0.074-1.031,0.227-1.512,0.456s-0.906,0.546-1.276,0.949s-0.664,0.909-0.88,1.517c-0.218,0.609-0.326,1.32-0.326,2.133
		c0,0.592,0.083,1.139,0.249,1.637c0.167,0.5,0.409,0.91,0.729,1.236c0.319,0.325,0.726,0.566,1.221,0.723
		c0.494,0.157,1.079,0.188,1.754,0.094c0.601-0.085,1.146-0.221,1.637-0.411c0.49-0.188,0.952-0.401,1.387-0.638V49.342z"/>
	<path class="st1" d="M86.001,48.746c-1.35,0.189-2.468,0.119-3.355-0.215c-0.888-0.333-1.558-0.855-2.012-1.568
		c-0.239-0.383-0.417-0.815-0.533-1.299c-0.115-0.482-0.174-1.029-0.174-1.639v-8.211l3.287-0.462v7.863
		c0,0.453,0.032,0.84,0.097,1.159c0.065,0.318,0.162,0.589,0.291,0.811c0.223,0.377,0.537,0.635,0.943,0.777
		c0.407,0.141,0.893,0.172,1.456,0.093c0.592-0.083,1.098-0.266,1.52-0.546c0.421-0.281,0.737-0.664,0.949-1.146
		c0.213-0.464,0.319-1.085,0.319-1.861v-7.933l3.287-0.462v8.21c0,1.091-0.189,2.037-0.568,2.84
		c-0.213,0.456-0.488,0.88-0.826,1.274c-0.337,0.394-0.734,0.746-1.192,1.055c-0.457,0.31-0.976,0.572-1.553,0.787
		C87.359,48.488,86.713,48.647,86.001,48.746z"/>
	<path class="st1" d="M101.494,42.325c0-0.286-0.081-0.511-0.242-0.673c-0.162-0.162-0.377-0.287-0.646-0.375
		c-0.269-0.086-0.575-0.152-0.922-0.195c-0.347-0.044-0.71-0.086-1.089-0.124c-0.481-0.063-0.943-0.147-1.387-0.257
		c-0.444-0.107-0.835-0.277-1.173-0.508c-0.337-0.229-0.605-0.541-0.804-0.934c-0.199-0.393-0.299-0.894-0.299-1.504
		c0-0.749,0.135-1.418,0.402-2.006c0.269-0.588,0.632-1.094,1.089-1.519c0.458-0.425,0.99-0.768,1.595-1.028
		c0.605-0.262,1.246-0.439,1.921-0.533c0.823-0.116,1.596-0.157,2.316-0.125c0.722,0.032,1.373,0.115,1.955,0.246v2.676
		c-0.305-0.059-0.626-0.108-0.963-0.149c-0.338-0.04-0.68-0.068-1.027-0.084c-0.346-0.016-0.69-0.021-1.032-0.014
		c-0.343,0.006-0.666,0.03-0.972,0.073c-0.388,0.055-0.716,0.139-0.984,0.249c-0.268,0.112-0.485,0.242-0.651,0.391
		c-0.167,0.147-0.286,0.308-0.361,0.48c-0.074,0.173-0.11,0.347-0.11,0.521c0,0.306,0.081,0.543,0.242,0.715
		c0.162,0.171,0.386,0.298,0.673,0.377c0.286,0.08,0.587,0.138,0.901,0.171c0.314,0.035,0.619,0.068,0.916,0.102
		c0.462,0.045,0.924,0.115,1.387,0.206c0.462,0.093,0.878,0.253,1.248,0.483s0.673,0.553,0.908,0.969
		c0.235,0.415,0.354,0.97,0.354,1.663c0,0.758-0.144,1.438-0.43,2.044c-0.287,0.604-0.687,1.129-1.2,1.575
		c-0.513,0.446-1.127,0.81-1.844,1.092c-0.717,0.281-1.505,0.481-2.364,0.603c-0.852,0.119-1.616,0.16-2.296,0.121
		c-0.68-0.038-1.241-0.128-1.685-0.269v-2.649c0.721,0.167,1.387,0.256,1.997,0.268c0.609,0.012,1.179-0.021,1.705-0.095
		c0.407-0.058,0.786-0.14,1.138-0.25c0.351-0.108,0.653-0.246,0.908-0.411c0.254-0.166,0.455-0.358,0.604-0.577
		C101.419,42.852,101.494,42.603,101.494,42.325z"/>
</g>
<g>
	<path class="st1" d="M13.489,24.911c0.338-0.048,0.659-0.058,0.967-0.03c0.308,0.028,0.572,0.09,0.791,0.186v0.945
		c-0.308-0.074-0.591-0.122-0.85-0.145c-0.259-0.021-0.522-0.014-0.791,0.023c-0.283,0.04-0.563,0.125-0.843,0.258
		c-0.277,0.131-0.526,0.318-0.746,0.563c-0.22,0.242-0.396,0.549-0.531,0.916c-0.134,0.369-0.202,0.812-0.202,1.328
		c0,0.377,0.051,0.717,0.151,1.021c0.1,0.303,0.248,0.557,0.446,0.76c0.197,0.205,0.445,0.351,0.743,0.438s0.642,0.104,1.032,0.049
		c0.283-0.04,0.569-0.11,0.857-0.213c0.288-0.101,0.569-0.227,0.842-0.378v0.944c-0.082,0.062-0.191,0.126-0.325,0.192
		c-0.135,0.069-0.282,0.132-0.443,0.191c-0.16,0.059-0.332,0.112-0.513,0.16c-0.181,0.047-0.361,0.084-0.541,0.109
		c-0.47,0.065-0.912,0.057-1.33-0.026s-0.782-0.249-1.095-0.498c-0.313-0.249-0.56-0.585-0.74-1.01
		c-0.181-0.423-0.271-0.942-0.271-1.558c0-0.459,0.048-0.879,0.143-1.259c0.096-0.379,0.226-0.72,0.392-1.021
		s0.36-0.565,0.582-0.793c0.223-0.226,0.459-0.419,0.711-0.579c0.251-0.159,0.512-0.286,0.78-0.38
		C12.973,25.011,13.236,24.947,13.489,24.911z"/>
	<path class="st1" d="M23.281,27.204c0,0.547-0.078,1.056-0.233,1.526c-0.157,0.472-0.377,0.888-0.663,1.247
		c-0.286,0.36-0.631,0.657-1.036,0.89c-0.406,0.232-0.859,0.385-1.362,0.455c-0.518,0.073-0.98,0.05-1.388-0.068
		c-0.408-0.118-0.755-0.318-1.041-0.598c-0.285-0.279-0.504-0.634-0.655-1.062s-0.227-0.915-0.227-1.462
		c0-0.553,0.077-1.063,0.234-1.534c0.155-0.472,0.377-0.89,0.662-1.251c0.286-0.363,0.633-0.66,1.04-0.893
		c0.407-0.233,0.863-0.385,1.366-0.456c0.513-0.071,0.975-0.049,1.385,0.069s0.756,0.317,1.039,0.6
		c0.283,0.283,0.501,0.639,0.652,1.066C23.206,26.163,23.281,26.652,23.281,27.204z M22.094,27.371c0-0.43-0.052-0.805-0.157-1.125
		c-0.104-0.319-0.251-0.582-0.439-0.787s-0.411-0.35-0.67-0.434c-0.259-0.083-0.542-0.103-0.85-0.06
		c-0.308,0.044-0.591,0.143-0.85,0.298c-0.259,0.157-0.482,0.364-0.67,0.622c-0.188,0.259-0.335,0.563-0.44,0.911
		c-0.104,0.35-0.157,0.739-0.157,1.169c0,0.425,0.053,0.797,0.157,1.116c0.105,0.32,0.254,0.582,0.443,0.785
		c0.19,0.202,0.416,0.345,0.674,0.428c0.26,0.083,0.543,0.104,0.851,0.061s0.59-0.144,0.846-0.299
		c0.257-0.156,0.478-0.36,0.666-0.617c0.188-0.256,0.335-0.559,0.439-0.908C22.042,28.183,22.094,27.796,22.094,27.371z"/>
	<path class="st1" d="M26.173,24.278l0.022-0.004c0.127-0.179,0.267-0.349,0.421-0.509c0.153-0.161,0.326-0.308,0.517-0.439
		s0.399-0.242,0.626-0.333c0.228-0.09,0.476-0.154,0.744-0.192c0.317-0.044,0.615-0.043,0.894,0.006
		c0.277,0.049,0.52,0.157,0.725,0.324c0.205,0.166,0.367,0.398,0.487,0.695c0.12,0.299,0.18,0.678,0.18,1.137v4.658l-1.136,0.159
		v-4.475c0-0.602-0.115-1.017-0.348-1.248s-0.57-0.315-1.015-0.253c-0.391,0.055-0.769,0.217-1.135,0.485
		c-0.367,0.269-0.682,0.612-0.945,1.03v4.943l-1.136,0.16v-6.958l0.88-0.124L26.173,24.278z"/>
	<path class="st1" d="M35.974,21.751c0.337-0.047,0.659-0.058,0.967-0.03c0.308,0.028,0.571,0.09,0.791,0.186v0.945
		c-0.308-0.074-0.591-0.122-0.85-0.145c-0.259-0.021-0.522-0.014-0.791,0.023c-0.284,0.04-0.564,0.125-0.843,0.258
		c-0.277,0.131-0.527,0.318-0.746,0.563c-0.22,0.243-0.396,0.549-0.531,0.916c-0.135,0.369-0.202,0.813-0.202,1.328
		c0,0.377,0.05,0.717,0.15,1.021c0.1,0.304,0.249,0.557,0.447,0.761c0.197,0.204,0.444,0.35,0.742,0.438s0.643,0.104,1.033,0.049
		c0.283-0.04,0.568-0.11,0.856-0.212c0.289-0.102,0.57-0.228,0.843-0.378v0.943c-0.082,0.062-0.191,0.126-0.326,0.192
		c-0.134,0.069-0.281,0.132-0.442,0.191c-0.161,0.059-0.332,0.112-0.513,0.16c-0.181,0.047-0.361,0.084-0.542,0.109
		c-0.469,0.065-0.911,0.057-1.329-0.026s-0.782-0.249-1.095-0.498c-0.313-0.249-0.561-0.585-0.74-1.01
		c-0.181-0.423-0.271-0.942-0.271-1.558c0-0.459,0.047-0.879,0.142-1.258c0.097-0.38,0.227-0.721,0.393-1.022
		s0.36-0.565,0.582-0.792c0.222-0.226,0.459-0.419,0.711-0.58c0.251-0.159,0.511-0.286,0.78-0.38
		C35.458,21.851,35.72,21.787,35.974,21.751z"/>
	<path class="st1" d="M39.607,19.805v-1.268l1.135-0.159v1.268L39.607,19.805z M39.636,28.377v-6.958l1.136-0.159v6.958
		L39.636,28.377z"/>
	<path class="st1" d="M46.345,26.629c0.377-0.053,0.719-0.132,1.029-0.236c0.31-0.104,0.619-0.234,0.927-0.391v0.944
		c-0.25,0.158-0.558,0.297-0.923,0.42c-0.366,0.122-0.759,0.213-1.18,0.272c-0.498,0.07-0.965,0.071-1.402,0.006
		c-0.438-0.064-0.815-0.217-1.136-0.456c-0.318-0.237-0.569-0.572-0.75-1.004c-0.181-0.431-0.271-0.969-0.271-1.613
		c0-0.635,0.087-1.198,0.262-1.688c0.176-0.491,0.41-0.913,0.702-1.267s0.628-0.635,1.008-0.845c0.38-0.209,0.777-0.344,1.191-0.401
		c0.39-0.055,0.753-0.042,1.092,0.04c0.338,0.082,0.633,0.245,0.881,0.487c0.248,0.244,0.444,0.575,0.588,0.994
		c0.144,0.42,0.216,0.937,0.216,1.552c0,0.059,0,0.108,0,0.15c0,0.041-0.003,0.137-0.008,0.283l-4.805,0.676
		c0,0.444,0.067,0.812,0.201,1.103c0.135,0.291,0.317,0.517,0.55,0.678c0.231,0.159,0.504,0.262,0.817,0.306
		C45.647,26.683,45.984,26.68,46.345,26.629z M45.747,21.352c-0.262,0.037-0.505,0.123-0.73,0.256
		c-0.225,0.135-0.422,0.302-0.589,0.501c-0.169,0.199-0.305,0.425-0.408,0.677c-0.104,0.25-0.168,0.513-0.193,0.784l3.56-0.5
		c0-0.273-0.036-0.523-0.107-0.751c-0.071-0.226-0.177-0.418-0.315-0.574c-0.138-0.156-0.309-0.271-0.512-0.342
		S46.014,21.314,45.747,21.352z"/>
	<path class="st1" d="M54.322,20.278l-0.088,0.012c-0.269,0.038-0.532,0.1-0.791,0.185c-0.259,0.086-0.502,0.193-0.729,0.326
		c-0.227,0.132-0.432,0.283-0.615,0.456c-0.184,0.172-0.336,0.367-0.458,0.585v4.848l-1.135,0.16v-6.958l0.879-0.124l0.22,1.076
		l0.021-0.003c0.112-0.196,0.251-0.385,0.414-0.564c0.163-0.179,0.349-0.342,0.554-0.487c0.205-0.146,0.429-0.27,0.673-0.369
		c0.244-0.102,0.501-0.17,0.77-0.207c0.049-0.007,0.099-0.013,0.15-0.019c0.051-0.004,0.096-0.007,0.135-0.008V20.278z"/>
	<path class="st1" d="M58.226,18.624c0.303-0.038,0.566-0.037,0.791,0.006c0.225,0.041,0.418,0.105,0.578,0.193
		c0.161,0.087,0.29,0.178,0.385,0.271c0.096,0.096,0.16,0.172,0.194,0.23l0.029-0.005l0.234-0.823l0.857-0.121v7.368
		c0,0.537-0.088,1.018-0.264,1.439c-0.177,0.423-0.423,0.788-0.74,1.097c-0.317,0.308-0.699,0.559-1.146,0.751
		c-0.447,0.192-0.942,0.326-1.483,0.402c-0.46,0.064-0.87,0.082-1.23,0.052c-0.361-0.029-0.646-0.086-0.85-0.17v-0.96
		c0.166,0.046,0.326,0.08,0.483,0.105c0.155,0.023,0.316,0.04,0.483,0.049c0.165,0.009,0.335,0.008,0.509-0.002
		c0.173-0.01,0.365-0.03,0.575-0.06c0.815-0.114,1.439-0.392,1.875-0.834c0.435-0.441,0.651-1.054,0.651-1.835v-0.93l-0.021,0.003
		c-0.25,0.309-0.539,0.555-0.869,0.741c-0.328,0.185-0.705,0.308-1.131,0.368c-0.195,0.027-0.405,0.034-0.63,0.021
		c-0.225-0.012-0.449-0.055-0.674-0.129c-0.225-0.072-0.439-0.183-0.645-0.326c-0.205-0.146-0.386-0.337-0.542-0.576
		s-0.281-0.529-0.377-0.873c-0.095-0.343-0.143-0.749-0.143-1.218c0-0.649,0.087-1.225,0.263-1.726
		c0.177-0.5,0.408-0.928,0.696-1.28c0.289-0.354,0.617-0.633,0.988-0.839C57.448,18.81,57.831,18.68,58.226,18.624z M56.314,22.598
		c0,0.548,0.066,0.984,0.198,1.313c0.132,0.329,0.299,0.574,0.502,0.739c0.202,0.164,0.424,0.265,0.662,0.303
		c0.239,0.037,0.467,0.041,0.683,0.011c0.351-0.05,0.681-0.167,0.988-0.352c0.308-0.186,0.578-0.416,0.813-0.692v-3.641
		c-0.063-0.079-0.151-0.167-0.264-0.264c-0.112-0.096-0.242-0.183-0.392-0.256c-0.148-0.075-0.319-0.131-0.51-0.171
		c-0.189-0.038-0.397-0.043-0.622-0.011c-0.337,0.047-0.633,0.156-0.891,0.326c-0.256,0.171-0.471,0.388-0.644,0.651
		s-0.304,0.568-0.392,0.915C56.359,21.817,56.314,22.193,56.314,22.598z"/>
	<path class="st1" d="M66.796,23.755c0.376-0.054,0.718-0.132,1.028-0.237c0.31-0.104,0.619-0.234,0.927-0.39v0.944
		c-0.249,0.158-0.557,0.297-0.923,0.42c-0.366,0.122-0.759,0.213-1.18,0.272c-0.498,0.069-0.965,0.071-1.402,0.005
		c-0.437-0.064-0.815-0.216-1.135-0.455c-0.319-0.237-0.57-0.572-0.751-1.004c-0.181-0.431-0.271-0.969-0.271-1.613
		c0-0.635,0.087-1.198,0.262-1.688c0.177-0.491,0.41-0.913,0.702-1.267c0.292-0.354,0.628-0.635,1.008-0.845
		s0.777-0.344,1.191-0.401c0.39-0.055,0.754-0.042,1.092,0.04c0.339,0.082,0.633,0.245,0.881,0.487
		c0.248,0.244,0.444,0.575,0.588,0.994c0.144,0.42,0.216,0.937,0.216,1.552c0,0.059,0,0.108,0,0.15c0,0.041-0.003,0.136-0.008,0.283
		l-4.804,0.676c0,0.444,0.066,0.812,0.201,1.103c0.134,0.291,0.316,0.517,0.549,0.678c0.232,0.159,0.504,0.262,0.817,0.306
		C66.098,23.809,66.434,23.806,66.796,23.755z M66.198,18.478c-0.263,0.036-0.506,0.122-0.731,0.256
		c-0.225,0.135-0.422,0.302-0.589,0.501c-0.168,0.199-0.305,0.425-0.408,0.676c-0.104,0.252-0.168,0.514-0.193,0.785l3.56-0.5
		c0-0.273-0.035-0.523-0.107-0.75c-0.071-0.227-0.177-0.419-0.315-0.575c-0.138-0.156-0.308-0.271-0.511-0.341
		C66.699,18.457,66.464,18.44,66.198,18.478z"/>
</g>
</svg>
