<svg width="209" height="41" viewBox="0 0 209 41" fill="none" xmlns="http://www.w3.org/2000/svg">
<g clip-path="url(#clip0)">
<path d="M39.0955 2.15337H2.16724V38.8466H39.0955V2.15337Z" fill="#FFF243" stroke="#201600" stroke-width="5" stroke-miterlimit="10"/>
<path d="M39.0955 2.15337H2.16724V38.8466H39.0955V2.15337Z" fill="#FFF243"/>
<path d="M20.6314 24.979L32.4207 36.6933L37.015 32.1282L25.2257 20.4139L27.4796 18.1744V13.6092L29.1266 11.9727V15.7626L30.687 17.313L36.4949 11.542L38.0553 13.0924C38.0553 12.145 37.7952 8.69958 35.0213 6.02941C31.9873 3.01471 28.8666 4.82353 27.8263 5.85714L22.2784 11.3697L23.6654 12.7479L20.6314 15.7626L17.5974 12.7479L18.9844 11.3697L13.4365 5.85714C12.3962 4.82353 9.27552 3.10084 6.24151 6.02941C3.46756 8.69958 3.29419 12.0588 3.29419 13.0924L4.76785 11.6282L10.4891 17.313L12.1362 15.6765V11.8866L13.7832 13.5231V18.0882L16.1237 20.4139L4.42111 32.042L9.10215 36.6071L20.6314 24.979Z" fill="#201600"/>
<path d="M52.965 6.97689H54.0053C55.6523 6.97689 55.8257 6.02941 55.8257 5.42647C55.8257 4.73739 55.5656 3.96218 54.0053 3.96218H52.965V6.97689ZM49.2375 1.11974H54.7855C58.513 1.11974 59.5532 3.70378 59.5532 5.5126C59.5532 7.32142 58.513 9.90546 54.7855 9.90546H52.8784V14.2122H49.2375V1.11974Z" fill="#201600"/>
<path d="M71.8627 9.64706C71.8627 8.35504 71.0825 7.49369 69.8689 7.49369C68.4819 7.49369 67.8751 8.61344 67.8751 9.64706C67.8751 10.7668 68.4819 11.8004 69.8689 11.8004C70.9958 11.8004 71.8627 10.9391 71.8627 9.64706ZM71.6893 5.16806H74.8967V14.2122H71.6893V13.1786C71.0825 14.0399 70.0423 14.5567 68.742 14.5567C66.4015 14.5567 64.4944 12.7479 64.4944 9.73319C64.4944 7.49369 65.708 4.90966 68.742 4.90966C69.9556 4.90966 70.9091 5.34033 71.6893 6.37395V5.16806Z" fill="#201600"/>
<path d="M82.1785 1.89495L84.3457 1.11974C84.6057 2.15336 85.5593 2.23949 85.906 2.23949C86.2528 2.23949 87.2063 2.15336 87.4664 1.11974L89.6335 1.89495C88.94 3.44537 87.3797 3.96218 85.906 3.96218C84.3457 3.96218 82.872 3.44537 82.1785 1.89495ZM83.9989 5.16806V9.99159L87.293 5.16806H90.4137V14.2122H87.1196V9.21638L83.8255 14.2122H80.6182V5.16806H83.9989Z" fill="#201600"/>
<path d="M104.11 12.2311C105.237 12.2311 106.364 11.4559 106.364 9.73319C106.364 8.0105 105.237 7.23529 104.11 7.23529V12.2311ZM101.249 7.23529C100.122 7.23529 98.9952 8.0105 98.9952 9.73319C98.9952 11.4559 100.122 12.2311 101.249 12.2311V7.23529ZM101.076 14.2983C99.0819 14.2983 95.8745 13.5231 95.8745 9.64705C95.8745 5.771 99.0819 4.99579 101.076 4.99579V1.03361H104.37V4.99579C106.364 4.99579 109.571 5.771 109.571 9.64705C109.571 13.5231 106.364 14.2983 104.37 14.2983V18.0882H101.076V14.2983Z" fill="#201600"/>
<path d="M122.747 12.2311C123.874 12.2311 125.001 11.4559 125.001 9.73319C125.001 8.0105 123.874 7.23529 122.747 7.23529V12.2311ZM119.887 7.23529C118.76 7.23529 117.633 8.0105 117.633 9.73319C117.633 11.4559 118.76 12.2311 119.887 12.2311V7.23529ZM119.626 14.2983C117.633 14.2983 114.425 13.5231 114.425 9.64705C114.425 5.771 117.633 4.99579 119.626 4.99579V1.03361H122.921V4.99579C124.914 4.99579 128.122 5.771 128.122 9.64705C128.122 13.5231 124.914 14.2983 122.921 14.2983V18.0882H119.626V14.2983Z" fill="#201600"/>
<path d="M140.431 9.64706C140.431 8.35504 139.651 7.49369 138.438 7.49369C137.051 7.49369 136.444 8.61344 136.444 9.64706C136.444 10.7668 137.051 11.8004 138.438 11.8004C139.651 11.8004 140.431 10.9391 140.431 9.64706ZM140.258 5.16806H143.379V14.2122H140.258V13.1786C139.651 14.0399 138.611 14.5567 137.311 14.5567C134.97 14.5567 133.063 12.7479 133.063 9.73319C133.063 7.49369 134.277 4.90966 137.311 4.90966C138.611 4.90966 139.478 5.34033 140.258 6.37395V5.16806Z" fill="#201600"/>
<path d="M150.747 1.89495L152.914 1.11974C153.174 2.15336 154.128 2.23949 154.475 2.23949C154.821 2.23949 155.775 2.15336 156.035 1.11974L158.202 1.89495C157.509 3.44537 155.948 3.96218 154.475 3.96218C153.001 3.96218 151.441 3.44537 150.747 1.89495ZM152.654 5.16806V9.99159L155.948 5.16806H159.069V14.2122H155.775V9.21638L152.481 14.2122H149.273V5.16806H152.654Z" fill="#201600"/>
<path d="M164.616 5.68487C165.57 5.16806 167.13 4.82352 168.431 4.82352C169.818 4.82352 172.158 5.2542 172.158 7.32142C172.158 8.2689 171.638 9.04411 170.858 9.38865V9.47479C172.158 9.73319 172.765 10.7668 172.765 11.7143C172.765 12.4034 172.332 14.4706 168.517 14.4706C167.737 14.4706 166.09 14.3844 164.356 13.3508L165.223 11.1975C166.177 11.7143 166.87 12.0588 168.084 12.0588C169.211 12.0588 169.384 11.4559 169.384 11.1975C169.384 10.5084 168.517 10.4223 167.997 10.4223H166.61V8.44117H168.257C168.604 8.44117 169.384 8.44117 169.384 7.66596C169.384 6.89075 168.431 6.80462 168.084 6.80462C167.304 6.80462 166.35 7.14916 165.657 7.57983L164.616 5.68487Z" fill="#201600"/>
<path d="M184.468 8.61344C184.381 7.66596 183.774 6.80462 182.647 6.80462C181.52 6.80462 180.827 7.66596 180.827 8.61344H184.468ZM187.502 11.3697C186.462 14.4706 183.428 14.4706 182.647 14.4706C179.787 14.4706 177.62 12.7479 177.62 9.64705C177.62 6.80462 179.527 4.82352 182.647 4.82352C186.982 4.82352 187.762 8.35504 187.675 10.4223H180.74C180.654 11.542 181.347 12.5756 182.734 12.5756C183.601 12.5756 184.294 12.145 184.468 11.4559L187.502 11.3697Z" fill="#201600"/>
<path d="M193.05 5.16807H196.344V8.26891H199.378V5.16807H202.672V14.126H199.378V10.5084H196.344V14.126H193.05V5.16807Z" fill="#201600"/>
<path d="M55.9125 36.4349C56.606 36.4349 57.2995 36.4349 57.8196 36.0042C58.4264 35.6596 58.6864 35.1428 58.6864 34.4538C58.6864 33.6786 58.3397 33.334 58.0796 33.1618C57.6462 32.8172 56.9527 32.8172 56.2592 32.8172H54.3521L53.9187 36.4349H55.9125ZM50.8847 22.7395H63.6275L63.1074 26.8739H55.219L54.8723 29.458H57.7329C59.1199 29.458 60.7669 29.6302 61.9805 30.5777C62.674 31.0945 63.5409 32.2143 63.5409 34.1092C63.5409 36.6071 62.1539 38.0714 61.027 38.7605C59.4666 39.7941 57.7329 39.8802 56.3459 39.8802H48.6309L50.8847 22.7395Z" fill="#201600"/>
<path d="M71.0825 33.1618H74.9834L73.7698 26.8739L71.0825 33.1618ZM71.3426 22.7395H77.2372L81.2248 39.8802H76.197L75.5902 36.9517H69.6956L68.3086 39.8802H63.1074L71.3426 22.7395Z" fill="#201600"/>
<path d="M84.3456 22.7395H89.2L88.4198 28.9412H94.3145L95.0947 22.7395H99.8624L97.7819 39.8802H92.9275L93.7944 32.9895H87.8997L87.1195 39.8802H82.2651L84.3456 22.7395Z" fill="#201600"/>
<path d="M106.624 29.9748L112.692 22.7395H118.326L110.785 31.1807L116.419 39.8802H110.611L106.277 32.4727L105.41 39.8802H100.556L102.636 22.7395H107.491L106.624 29.9748Z" fill="#201600"/>
<path d="M131.069 22.7395H136.877L140.865 39.708H135.837L135.23 36.7794H129.422L128.035 39.708H122.834L131.069 22.7395ZM130.896 33.0756H134.797L133.583 26.7878L130.896 33.0756Z" fill="#201600"/>
<path d="M152.221 22.7395C153.261 22.7395 154.908 22.8256 156.035 23.8592C156.555 24.376 156.989 25.2374 156.989 26.4433C156.989 27.9937 156.295 29.0273 155.428 29.7164C154.821 30.2332 154.041 30.4916 153.868 30.5777V30.6639C154.648 30.8361 155.428 31.2668 155.948 31.7836C156.469 32.3004 156.902 33.1618 156.902 34.4538C156.902 36.0042 156.295 37.1239 155.428 37.9853C154.735 38.6744 153.435 39.708 150.661 39.708H141.905L143.986 22.7395H152.221ZM149.36 36.3487C150.054 36.3487 150.661 36.3487 151.267 36.0042C151.787 35.7458 152.134 35.229 152.134 34.4538C152.134 33.7647 151.787 33.4202 151.527 33.2479C151.094 32.9033 150.4 32.9034 149.794 32.9034H147.627L147.193 36.4349H149.36V36.3487ZM150.14 29.458C150.574 29.458 151.267 29.3718 151.787 29.1134C152.481 28.6828 152.568 28.0798 152.568 27.6491C152.568 27.2185 152.394 26.7878 152.048 26.4433C151.614 26.1849 150.921 26.0987 150.661 26.0987H148.667L148.233 29.3718L150.14 29.458Z" fill="#201600"/>
<path d="M164.443 22.7395H170.251L174.239 39.708H169.211L168.604 36.7794H162.796L161.409 39.708H156.208L164.443 22.7395ZM164.183 33.0756H168.084L166.87 26.7878L164.183 33.0756Z" fill="#201600"/>
<path d="M193.743 22.7395L191.663 39.708H186.895L188.455 26.7878H184.988L184.121 33.5063C183.948 34.7122 183.774 36.0903 182.994 37.3823C181.52 39.6218 179.093 39.9664 177.186 39.9664C176.406 39.9664 175.886 39.8802 175.192 39.7941L175.712 35.7458C176.146 35.8319 176.493 35.9181 176.839 35.9181C177.966 35.9181 178.66 35.3151 178.92 34.7983C179.267 34.1954 179.527 32.8172 179.527 32.2143L180.654 22.8256H193.743V22.7395Z" fill="#201600"/>
<path d="M196.431 22.7395H201.198L200.331 29.3718H203.192C204.579 29.3718 206.226 29.5441 207.44 30.4916C208.133 31.0084 209 32.1281 209 34.0231C209 36.521 207.7 37.8992 206.573 38.6744C205.012 39.708 203.279 39.7941 201.978 39.7941H194.35L196.431 22.7395ZM201.458 36.3487C202.152 36.3487 202.845 36.3487 203.365 36.0042C203.972 35.6597 204.232 35.1429 204.232 34.4538C204.232 33.6786 203.886 33.334 203.712 33.1618C203.279 32.8172 202.585 32.8172 201.892 32.8172H199.985L199.551 36.4349H201.458V36.3487Z" fill="#201600"/>
</g>
<defs>
<clipPath id="clip0">
<rect width="209" height="41" fill="white"/>
</clipPath>
</defs>
</svg>
