<svg width="33" height="33" viewBox="0 0 33 33" fill="#fff" xmlns="http://www.w3.org/2000/svg">
<circle opacity="1" cx="16.5" cy="16.5" r="16" stroke="#000"/>
<path d="M12.56 12.54C13.624 12.54 14.46 12.82 15.068 13.38C15.676 13.94 15.98 14.712 15.98 15.696C15.98 16.648 15.696 17.4 15.128 17.952C14.56 18.496 13.78 18.768 12.788 18.768C12.3 18.768 11.836 18.7 11.396 18.564C10.956 18.42 10.516 18.204 10.076 17.916V21H9.2V15.828C9.2 14.788 9.492 13.98 10.076 13.404C10.668 12.828 11.496 12.54 12.56 12.54ZM12.656 18.036C13.416 18.036 14.012 17.832 14.444 17.424C14.876 17.008 15.092 16.436 15.092 15.708C15.092 14.972 14.868 14.392 14.42 13.968C13.972 13.544 13.36 13.332 12.584 13.332C11.792 13.332 11.176 13.552 10.736 13.992C10.296 14.424 10.076 15.036 10.076 15.828V17.064C10.428 17.384 10.82 17.628 11.252 17.796C11.692 17.956 12.16 18.036 12.656 18.036ZM23.4424 14.688V20.232C23.4424 21.304 23.1984 22.096 22.7104 22.608C22.2224 23.128 21.4864 23.388 20.5024 23.388C19.9504 23.388 19.4264 23.3 18.9304 23.124C18.4424 22.956 18.0464 22.72 17.7424 22.416L18.1744 21.768C18.4464 22.04 18.7824 22.252 19.1824 22.404C19.5824 22.556 20.0104 22.632 20.4664 22.632C21.1944 22.632 21.7304 22.444 22.0744 22.068C22.4184 21.7 22.5904 21.124 22.5904 20.34V19.608C22.3664 19.976 22.0584 20.26 21.6664 20.46C21.2824 20.66 20.8464 20.76 20.3584 20.76C19.5344 20.76 18.8824 20.532 18.4024 20.076C17.9304 19.612 17.6944 18.936 17.6944 18.048V14.688H18.5464V17.964C18.5464 18.628 18.7104 19.132 19.0384 19.476C19.3664 19.82 19.8344 19.992 20.4424 19.992C21.1064 19.992 21.6304 19.792 22.0144 19.392C22.3984 18.984 22.5904 18.42 22.5904 17.7V14.688H23.4424Z" fill="#000"/>
</svg>
