<svg width="33" height="33" viewBox="0 0 33 33" fill="none" xmlns="http://www.w3.org/2000/svg">
<circle opacity="1" cx="16.5" cy="16.5" r="16" fill="#fff" stroke="black"/>
<path d="M16.496 12.6V18.372C16.496 19.636 16.144 20.604 15.44 21.276C14.736 21.956 13.764 22.296 12.524 22.296C11.812 22.296 11.16 22.196 10.568 21.996C9.976 21.804 9.472 21.528 9.056 21.168L9.812 19.728C10.572 20.344 11.46 20.652 12.476 20.652C13.18 20.652 13.7 20.476 14.036 20.124C14.38 19.764 14.552 19.212 14.552 18.468V17.952C13.992 18.64 13.2 18.984 12.176 18.984C11.112 18.984 10.292 18.684 9.716 18.084C9.148 17.476 8.864 16.604 8.864 15.468V12.6H10.808V15.348C10.808 16.004 10.964 16.5 11.276 16.836C11.588 17.172 12.028 17.34 12.596 17.34C13.196 17.34 13.672 17.164 14.024 16.812C14.376 16.46 14.552 15.928 14.552 15.216V12.6H16.496ZM21.1659 18.552H20.1939V21H18.3219V14.544H20.1939V17.052H21.2019L22.9539 14.544H24.9459L22.6899 17.64L25.1019 21H22.8939L21.1659 18.552Z" fill="#fff"/>
<path d="M16.496 12.6V18.372C16.496 19.636 16.144 20.604 15.44 21.276C14.736 21.956 13.764 22.296 12.524 22.296C11.812 22.296 11.16 22.196 10.568 21.996C9.976 21.804 9.472 21.528 9.056 21.168L9.812 19.728C10.572 20.344 11.46 20.652 12.476 20.652C13.18 20.652 13.7 20.476 14.036 20.124C14.38 19.764 14.552 19.212 14.552 18.468V17.952C13.992 18.64 13.2 18.984 12.176 18.984C11.112 18.984 10.292 18.684 9.716 18.084C9.148 17.476 8.864 16.604 8.864 15.468V12.6H10.808V15.348C10.808 16.004 10.964 16.5 11.276 16.836C11.588 17.172 12.028 17.34 12.596 17.34C13.196 17.34 13.672 17.164 14.024 16.812C14.376 16.46 14.552 15.928 14.552 15.216V12.6H16.496ZM21.1659 18.552H20.1939V21H18.3219V14.544H20.1939V17.052H21.2019L22.9539 14.544H24.9459L22.6899 17.64L25.1019 21H22.8939L21.1659 18.552Z" fill="#000"/>
</svg>
